HIERARCHY
ROOT RootJoint
{
    OFFSET   0.000000   0.000000   0.000000
    CHANNELS 6 Xposition Yposition Zposition Xrotation Yrotation Zrotation
    JOINT pelvis_lowerback
    {
        OFFSET   0.000000   0.093605   0.000000
        CHANNELS 3 Xrotation Yrotation Zrotation
        JOINT lowerback_torso
        {
            OFFSET   0.000000   0.100000   0.000000
            CHANNELS 3 Xrotation Yrotation Zrotation
            JOINT torso_head
            {
                OFFSET   0.000000   0.282350   0.000000
                CHANNELS 3 Xrotation Yrotation Zrotation
                End Site
                {
                    OFFSET   0.000000   0.192650   0.000000
                }
            }
            JOINT rTorso_Clavicle
            {
                OFFSET  -0.001000   0.157500   0.000000
                CHANNELS 3 Xrotation Yrotation Zrotation
                JOINT rShoulder
                {
                    OFFSET  -0.117647   0.000000   0.000000
                    CHANNELS 3 Xrotation Yrotation Zrotation
                    JOINT rElbow
                    {
                        OFFSET  -0.245000   0.000000   0.000000
                        CHANNELS 3 Xrotation Yrotation Zrotation
                        JOINT rWrist
                        {
                            OFFSET  -0.240000   0.000000   0.000000
                            CHANNELS 3 Xrotation Yrotation Zrotation
                            End Site
                            {
                                OFFSET  -0.116353  -0.002500   0.000000
                            }
                        }
                    }
                }
            }
            JOINT lTorso_Clavicle
            {
                OFFSET   0.001000   0.157500   0.000000
                CHANNELS 3 Xrotation Yrotation Zrotation
                JOINT lShoulder
                {
                    OFFSET   0.117647   0.000000   0.000000
                    CHANNELS 3 Xrotation Yrotation Zrotation
                    JOINT lElbow
                    {
                        OFFSET   0.245000   0.000000   0.000000
                        CHANNELS 3 Xrotation Yrotation Zrotation
                        JOINT lWrist
                        {
                            OFFSET   0.240000   0.000000   0.000000
                            CHANNELS 3 Xrotation Yrotation Zrotation
                            End Site
                            {
                                OFFSET   0.116353  -0.002500   0.000000
                            }
                        }
                    }
                }
            }
        }
    }
    JOINT rHip
    {
        OFFSET  -0.100000  -0.051395   0.000000
        CHANNELS 3 Xrotation Yrotation Zrotation
        JOINT rKnee
        {
            OFFSET   0.000000  -0.410000   0.000000
            CHANNELS 3 Xrotation Yrotation Zrotation
            JOINT rAnkle
            {
                OFFSET   0.000000  -0.390000   0.000000
                CHANNELS 3 Xrotation Yrotation Zrotation
                JOINT rToeJoint
                {
                    OFFSET   0.000000  -0.050000   0.130000
                    CHANNELS 3 Xrotation Yrotation Zrotation
                    End Site
                    {
                        OFFSET  -0.010000   0.002000   0.060000
                    }
                }
            }
        }
    }
    JOINT lHip
    {
        OFFSET   0.100000  -0.051395   0.000000
        CHANNELS 3 Xrotation Yrotation Zrotation
        JOINT lKnee
        {
            OFFSET   0.000000  -0.410000   0.000000
            CHANNELS 3 Xrotation Yrotation Zrotation
            JOINT lAnkle
            {
                OFFSET   0.000000  -0.390000   0.000000
                CHANNELS 3 Xrotation Yrotation Zrotation
                JOINT lToeJoint
                {
                    OFFSET   0.000000  -0.050000   0.130000
                    CHANNELS 3 Xrotation Yrotation Zrotation
                    End Site
                    {
                        OFFSET   0.010000   0.002000   0.060000
                    }
                }
            }
        }
    }
}
MOTION
Frames: 12
Frame Time:   0.008333
 -2.376719   0.925631   3.975860   0.000000   0.000000   0.000000   0.000000   0.000000   0.000000   0.000000   0.000000   0.000000   0.000000   0.000000   0.000000   0.000000   0.000000   0.000000   0.000000   0.000000   0.000000   0.000000   0.000000   0.000000   0.000000   0.000000   0.000000   0.000000   0.000000   0.000000   0.000000   0.000000   0.000000   0.000000   0.000000   0.000000   0.000000   0.000000   0.000000   0.000000   0.000000   0.000000   0.000000   0.000000   0.000000   0.000000   0.000000   0.000000   0.000000   0.000000   0.000000   0.000000   0.000000   0.000000   0.000000   0.000000   0.000000   0.000000   0.000000   0.000000   0.000000   0.000000   0.000000
 -2.376486   0.923998   3.975506  -0.264560   0.089295   0.056055   0.567393  -0.075769  -0.071454   0.072018  -0.140206   0.074297   0.051205   0.181547  -0.056456  -0.313399  -0.807754  -0.833790  -0.924525  -0.268227   0.085422  -0.015429   2.469033   0.018836  -0.083290  -0.001095   0.748600  -0.319906   0.568978   0.910790  -0.438569   0.433868  -0.389360  -0.007168  -1.406349  -0.004838   0.024639  -0.359777  -0.681248  -0.254707   0.028490  -0.383779   1.381915   0.003970   0.001352  -1.029723  -0.031009   0.000333   0.099761   0.000284   0.000076  -0.416810  -0.009080   0.194920   2.439355  -0.005308   0.001844  -2.364401   0.480672   0.306110  -0.160363   0.000780  -0.000780
 -2.376218   0.923766   3.975301  -0.728996   0.213283   0.131052   1.272572  -0.187561  -0.141815   0.318763  -0.310458   0.147051   0.183846   0.354262  -0.107811  -0.628486  -1.748160  -1.772134  -1.790412  -0.613897   0.019143  -0.033529   4.804684   0.029231  -0.203823   0.561300   1.276093  -0.636484   1.260211   1.901671  -0.846878   0.945883  -0.627633  -0.015423  -2.716248  -0.006786   0.030343  -0.973472  -1.181717  -0.486295  -0.098235  -0.506658   2.868653   0.003826   0.000859  -1.798932  -0.199299   0.239095   0.240490  -0.000007  -0.000156  -0.906922   0.144635   0.136243   4.667216  -0.004138   0.007127  -4.525459   1.048390   0.397203  -0.258901   0.000712  -0.001359
 -2.376109   0.923290   3.975640  -1.235998   0.158825   0.154035   1.911592  -0.238568  -0.178267   0.602752  -0.430945   0.233983   0.350603   0.516880  -0.152531  -0.941480  -2.715244  -2.875799  -2.596727  -1.001414  -0.184177  -0.053334   6.963804   0.036390  -0.317778   1.107813   1.627477  -0.947895   2.024733   3.049695  -1.224230   1.514797  -0.712689  -0.024496  -3.908465  -0.008536   0.040599  -1.478142  -1.519554  -0.688657  -0.168808  -0.558812   4.409484   0.003369  -0.001188  -2.544904  -0.295107   0.360573   0.340813  -0.000088  -0.000324  -1.204701   0.173836   0.421917   7.071523  -0.009413   0.006085  -6.587541   1.450713   0.718464  -0.443642   0.001565  -0.001696
 -2.375939   0.922750   3.976403  -1.709913   0.008437   0.222479   2.454625  -0.277723  -0.238882   0.847782  -0.529907   0.296513   0.517302   0.668263  -0.196084  -1.258211  -3.678584  -4.053639  -3.352738  -1.407670  -0.487086  -0.071107   8.960117   0.041671  -0.422006   1.549617   1.757669  -1.259370   2.813793   4.260065  -1.576938   2.106933  -0.685578  -0.032474  -4.997559  -0.010449   0.056145  -1.842435  -1.647340  -0.894730  -0.250598  -0.672165   5.910636   0.002973  -0.004203  -3.220873  -0.382117   0.469966   0.432630  -0.000129  -0.000522  -1.361528   0.194722   0.880961   9.400386  -0.018138   0.004279  -8.507120   1.818202   1.034632  -0.591613   0.002328  -0.001663
 -2.375615   0.922220   3.977467  -2.134811  -0.192241   0.357555   2.910124  -0.322028  -0.324920   1.040977  -0.626042   0.326803   0.673117   0.808928  -0.239806  -1.580185  -4.620711  -5.263709  -4.064082  -1.817479  -0.854553  -0.085264  10.808693   0.045288  -0.516853   1.894487   1.716104  -1.571781   3.592475   5.482133  -1.908533   2.696108  -0.589219  -0.038707  -5.998816  -0.012349   0.075600  -2.102404  -1.624439  -1.108221  -0.341847  -0.875012   7.344787   0.002681  -0.007267  -3.847061  -0.461905   0.566737   0.519971  -0.000138  -0.000711  -1.418129   0.216218   1.450564  11.613141  -0.028215   0.003292 -10.297677   2.154383   1.342724  -0.717800   0.002974  -0.001502
 -2.375090   0.921729   3.978732  -2.509945  -0.421655   0.560368   3.292162  -0.377271  -0.429427   1.187212  -0.727737   0.328220   0.815776   0.939729  -0.282904  -1.906816  -5.529923  -6.478105  -4.734713  -2.220189  -1.262086  -0.095332  12.523293   0.047312  -0.603452   2.164089   1.550649  -1.883920   4.340097   6.684226  -2.221159   3.266074  -0.452417  -0.043126  -6.924426  -0.014048   0.097277  -2.295719  -1.506426  -1.328828  -0.435962  -1.170541   8.703044   0.002501  -0.009961  -4.432856  -0.533763   0.649761   0.601625  -0.000121  -0.000864  -1.399869   0.239517   2.100359  13.703557  -0.038320   0.003461 -11.969088   2.461497   1.641100  -0.829053   0.003499  -0.001300
 -2.374431   0.920734   3.979611  -2.738867  -0.663057   0.607548   3.702710  -0.465872  -0.294225   1.111884  -0.840417   0.359896   0.936001   1.029172  -0.349971  -2.179602  -6.512536  -7.671243  -5.198069  -2.552612  -1.496204  -0.104500  14.686947   0.046576  -0.612295   2.135032   0.944003  -2.149817   5.213109   7.740216  -2.391956   3.727371  -0.595121  -0.048478  -8.266274  -0.015736   0.085965  -2.174624  -0.914261  -2.041632  -0.301312  -1.483604  10.831502   0.006093  -0.011222  -5.970165  -0.675802   0.642047   0.520699  -0.000277  -0.000490  -1.420282   0.323978   3.093813  15.395906  -0.045889   0.005585 -12.882871   2.664348   1.772712  -0.753833   0.002015  -0.001003
 -2.373702   0.919346   3.980457  -2.964890  -0.841386   0.632103   4.094643  -0.595986  -0.121307   1.033825  -0.984393   0.423087   1.046876   1.109361  -0.399288  -2.448896  -7.427310  -8.733530  -5.628925  -2.852992  -1.675454  -0.106171  16.724600   0.044468  -0.616973   2.237338   0.371821  -2.408571   6.000267   8.638357  -2.547738   4.133622  -0.797709  -0.050123  -9.539945  -0.016974   0.072606  -2.186173  -0.398669  -2.773962  -0.203496  -1.844132  12.942792   0.010137  -0.012389  -7.378120  -0.832345   0.670017   0.386877  -0.000562  -0.000055  -1.387161   0.394063   4.242741  16.939183  -0.052058   0.008773 -13.729667   2.852808   1.899156  -0.629201   0.000169  -0.000678
 -2.372908   0.917694   3.981319  -3.186417  -1.028422   0.677641   4.457896  -0.728041   0.043957   0.958461  -1.134495   0.491395   1.150036   1.184165  -0.439858  -2.712014  -8.270700  -9.669412  -6.029446  -3.129064  -1.802696  -0.102705  18.629759   0.041580  -0.621160   2.372604  -0.115822  -2.658674   6.709714   9.414296  -2.690588   4.497882  -1.033249  -0.049339 -10.735885  -0.017859   0.058140  -2.252030   0.017532  -3.496788  -0.161557  -2.180915  15.003969   0.012056  -0.014641  -8.651598  -1.005088   0.740891   0.262751  -0.000667   0.000363  -1.304679   0.460040   5.465670  18.375624  -0.056971   0.011740 -14.519893   3.029090   2.021195  -0.507780  -0.001368  -0.000423
 -2.371997   0.915919   3.982212  -3.399844  -1.266387   0.772587   4.792602  -0.848226   0.185083   0.882568  -1.276167   0.547721   1.245538   1.254330  -0.477469  -2.966091  -9.044953 -10.493243  -6.400847  -3.381502  -1.885403  -0.095967  20.410659   0.038214  -0.624567   2.519323  -0.520838  -2.899647   7.356597  10.085343  -2.821086   4.830341  -1.292051  -0.047045 -11.855822  -0.018460   0.043691  -2.341249   0.348492  -4.210738  -0.175759  -2.444090  17.005498   0.010723  -0.017878  -9.808389  -1.187493   0.844731   0.151368  -0.000570   0.000769  -1.177033   0.525577   6.701248  19.719566  -0.060664   0.013900 -15.257050   3.193285   2.138592  -0.390577  -0.002609  -0.000267
 -2.370825   0.914069   3.983143  -3.602225  -1.486914   0.922897   5.098836  -0.986390   0.322191   0.804190  -1.430316   0.591060   1.333571   1.319044  -0.513983  -3.211980  -9.764680 -11.231573  -6.745762  -3.618337  -1.939311  -0.087305  22.072596   0.034594  -0.627111   2.661643  -0.861308  -3.129498   7.941169  10.662310  -2.939603   5.130518  -1.571174  -0.044032 -12.905513  -0.018823   0.029405  -2.449748   0.597278  -4.891539  -0.159697  -2.736684  18.919978   0.009132  -0.019441 -10.877132  -1.337308   0.903670   0.051741  -0.000509   0.000981  -1.033648   0.584071   7.916309  20.981297  -0.062921   0.015982 -15.945067   3.345127   2.250780  -0.281008  -0.003533  -0.000129
